<?xml version="1.0" encoding="utf-8"?>
<!-- Generator: Adobe Illustrator 18.0.0, SVG Export Plug-In . SVG Version: 6.00 Build 0)  -->
<!DOCTYPE svg PUBLIC "-//W3C//DTD SVG 1.1//EN" "http://www.w3.org/Graphics/SVG/1.1/DTD/svg11.dtd">
<svg version="1.1" id="Layer_1" xmlns="http://www.w3.org/2000/svg" xmlns:xlink="http://www.w3.org/1999/xlink" x="0px" y="0px"
	 viewBox="0 647 612 145" enable-background="new 0 647 612 145" xml:space="preserve">
<g>
	<path fill="#333333" d="M368.2,765.1c-4.2-4-6.3-9.9-6.3-17.5v-6.8c0-2.1,1-3.2,3.2-3.2h12.2c2,0,3,1,3,3.2v5.9
		c0,3.1,0.7,5.3,2,6.6c1.3,1.3,3.5,2,6.6,2h9.9c3,0,5.2-0.7,6.4-2c1.3-1.3,2-3.5,2-6.6v-44.3c0-3.1-0.7-5.3-2-6.6
		c-1.3-1.3-3.4-2-6.4-2h-9.9c-3.1,0-5.3,0.7-6.6,2c-1.3,1.3-2,3.5-2,6.6v5.9c0,2.1-0.9,3.2-3,3.2h-12.2c-2.1,0-3.2-1-3.2-3.2v-6.8
		c0-7.5,2.1-13.3,6.3-17.5c4.2-4.1,10.1-6.2,17.6-6.2h15.8c7.7,0,13.6,2.1,17.7,6.1c4.2,4,6.3,9.9,6.3,17.5v46
		c0,7.7-2.1,13.5-6.3,17.5c-4.1,4-10.1,6.1-17.7,6.1h-15.8C378.2,771.3,372.4,769.3,368.2,765.1z"/>
	<path fill="#333333" d="M312.2,769.4c-2.8-1.3-4.6-3.3-5.7-5.8h-0.6v4.8c0,2-0.9,3-3,3h-11.9c-2.1,0-3.2-0.9-3.2-3v-67.9
		c0-2,1-3,3.2-3h12.2c2,0,3,0.9,3,3v43.9c0,7.3,3.3,11,10,11h5.3c3,0,5.2-0.7,6.4-2c1.3-1.3,2-3.5,2-6.6v-46.4c0-2,0.9-3,3-3h12.3
		c2,0,3,0.9,3,3v47.3c0,7.7-2,13.5-5.8,17.5c-3.9,4-9.5,6.1-16.9,6.1h-4.8C317.8,771.3,315,770.7,312.2,769.4z"/>
	<path fill="#333333" d="M253.1,768.3v-43.7c0-7.6-3.3-11.3-10-11.3h-10c-1,0.1-1.8-0.1-2.2-0.5c-0.4-0.4-0.7-1.3-0.7-2.4v-10.1
		c0-2,0.9-3,2.9-3h5.2c3,0,5.9,0.7,8.6,2.1c2.8,1.4,4.6,3.4,5.7,5.9h0.6v-4.9c0-2,0.9-3,3-3h12.3c2,0,3,0.9,3,3v67.9c0,2-0.9,3-3,3
		h-12.3C254.2,771.3,253.2,770.3,253.1,768.3z"/>
	<path fill="#333333" d="M170.3,751.7c0-4.6,0.9-8.4,3-11.3c2-2.8,5.6-5.6,10.6-8.3l14.6-8.7c4.2-2.2,6.3-4.4,6.3-6.5v-0.7
		c0-2.4-2.4-3.6-7.1-3.6h-20.2c-1.1,0-1.9-0.3-2.3-0.7c-0.4-0.4-0.6-1.2-0.6-2.2v-9.5c0-2,1-3,2.9-3h24.3c7.7,0,13.2,1.6,16.8,4.8
		c3.5,3.2,5.3,8.2,5.3,15c0,4.6-1.2,8.3-3.5,11.2c-2.3,2.9-6,5.7-10.9,8.2l-14.4,8c-4,2.1-5.9,4.4-5.9,6.7v0.7
		c0,2.9,2.4,4.4,7.1,4.4h24.2c1.1,0,2,0.3,2.3,0.7c0.4,0.4,0.6,1.2,0.6,2.2v9.3c0,2-0.9,3-2.9,3H193
		C177.8,771.3,170.2,764.8,170.3,751.7z"/>
	<path fill="#333333" d="M122.2,769.4c-2.8-1.3-4.6-3.3-5.7-5.8H116v4.8c0,2-0.9,3-3,3H101c-2.1,0-3.2-0.9-3.2-3v-67.9
		c0-2,1-3,3.2-3h12.2c2,0,3,0.9,3,3v43.9c0,7.3,3.3,11,10,11h5.3c3,0,5.2-0.7,6.4-2c1.3-1.3,2-3.5,2-6.6v-46.4c0-2,0.9-3,3-3h12.3
		c2,0,3,0.9,3,3v47.3c0,7.7-2,13.5-5.8,17.5c-3.9,4-9.5,6.1-16.9,6.1h-4.8C127.7,771.3,124.9,770.7,122.2,769.4z"/>
	<path fill="#333333" d="M30.9,751.7c0-4.6,0.9-8.4,3-11.3c2-2.8,5.6-5.6,10.6-8.3l14.6-8.7c4.2-2.2,6.3-4.4,6.3-6.5v-0.7
		c0-2.4-2.4-3.6-7.1-3.6H38.1c-1.1,0-1.9-0.3-2.3-0.7s-0.6-1.2-0.6-2.2v-9.5c0-2,1-3,2.9-3h24.2c7.7,0,13.2,1.6,16.8,4.8
		c3.5,3.2,5.3,8.2,5.3,15c0,4.6-1.2,8.3-3.5,11.2s-6,5.7-10.9,8.2l-14.4,8c-4,2.1-5.9,4.4-5.9,6.7v0.7c0,2.9,2.4,4.4,7.1,4.4h24.2
		c1.1,0,2,0.3,2.3,0.7c0.4,0.4,0.6,1.2,0.6,2.2v9.3c0,2-0.9,3-2.9,3H53.5C38.4,771.3,30.8,764.8,30.9,751.7z"/>
</g>
<g>
	<path fill="#FFFFFF" d="M520.7,695.1l35.3,20.3c6.1,3.4,6.1,12.2,0,15.6l-35.3,20.5c-6.1,3.4-13.5-0.9-13.5-7.7v-40.8
		C507.2,696.1,514.6,691.8,520.7,695.1z"/>
	<g>
		<path fill="#ED2A26" d="M611,668.5c0,6.4-5.2,11.6-11.6,11.6c-6.4,0-11.6-5.2-11.6-11.6c0-6.4,5.2-11.6,11.6-11.6
			C605.8,656.9,611,662.1,611,668.5z"/>
		<path fill="#ED2A26" d="M583.1,652.9c-0.1,3.2-2.8,5.7-5.9,5.6s-5.7-2.8-5.5-5.9c0.1-3.2,2.8-5.7,5.9-5.6
			C580.8,647.1,583.3,649.7,583.1,652.9z"/>
		<path fill="#ED2A26" d="M466.4,773.5c-0.2,3.7-3.3,6.6-7,6.4c-3.7-0.2-6.6-3.3-6.4-7c0.2-3.7,3.3-6.6,7-6.4
			C463.7,766.7,466.5,769.8,466.4,773.5z"/>
	</g>
	<g>
		<path fill="#DA1F27" d="M558.7,707.3c0,0.3,0,0.4,0,0.7c16.4,9,29,24.6,33.7,43.5c4.7-10.3,6.9-22,5.8-34.1
			c-3.2-37-35.2-64.6-72-62.7C544.2,665.8,556.8,684.8,558.7,707.3z"/>
		<path fill="#ED2A26" d="M461.5,729.2c0.3,3.7,0.9,7.3,1.8,10.8c9.9-21.9,31-37.9,56.7-40.1c14-1.2,27.3,1.9,38.8,8.2
			c0-0.3,0-0.4,0-0.7c-2-22.5-14.5-41.6-32.4-52.6c-0.8,0-1.5,0.1-2.3,0.2C486.3,658.2,458.2,691.4,461.5,729.2z"/>
		<path fill="#AF1F24" d="M558.8,708c2.8,37.5-25,70.4-62.6,73.6c-0.8,0.1-1.5,0.1-2.3,0.2c12.1,7.5,26.6,11.3,41.9,10
			c25.6-2.2,46.8-18.2,56.7-40.1C587.7,732.6,575.2,717,558.8,708z"/>
		<path fill="#C72127" d="M558.8,708c-11.4-6.3-24.8-9.4-38.8-8.2c-25.6,2.2-46.8,18.2-56.7,40.1c4.5,17.8,15.6,32.6,30.6,41.8
			c0.8,0,1.5-0.1,2.3-0.2C533.8,778.4,561.7,745.5,558.8,708z"/>
	</g>
	<path fill="#FFFFFF" d="M519.3,692.3l40.1,23.1c6.9,3.9,6.9,13.8,0,17.6l-40.1,23.3c-6.9,3.9-15.3-1-15.3-8.9v-46.4
		C504,693.4,512.4,688.5,519.3,692.3z"/>
</g>
</svg>
